<?xml version="1.0" encoding="utf-8" ?><svg xmlns="http://www.w3.org/2000/svg" xmlns:xlink="http://www.w3.org/1999/xlink" width="1024" height="1024" viewBox="0 0 1024 1024"><path fill="#283618" transform="scale(2 2)" d="M170.966 300.245L175.003 300.301C197.714 300.415 177.03 274.393 196.283 255.423C205.819 246.028 215.094 246.738 227.477 246.739L247.45 246.753L247.45 265.267L227.813 265.242C221.458 265.237 213.908 263.839 209.013 268.896C198.239 280.028 221.005 318.723 170.966 319.826C161.386 362.639 96.9958 362.494 87.245 316.54C75.5398 262.281 160.177 241.7 170.966 300.245Z"/><path fill="#DDA15E" transform="scale(2 2)" d="M170.966 300.245L175.003 300.301C197.714 300.415 177.03 274.393 196.283 255.423C205.819 246.028 215.094 246.738 227.477 246.739L247.45 246.753L247.45 265.267L227.813 265.242C221.458 265.237 213.908 263.839 209.013 268.896C198.239 280.028 221.005 318.723 170.966 319.826C156.5 320.057 141.383 319.827 126.862 319.826L126.862 300.245L170.966 300.245Z"/><path fill="#E8CF91" transform="scale(2 2)" d="M150.861 212.702C148.855 243.747 104.328 259.628 79.2777 236.63C50.0365 209.785 68.3753 161.509 107.646 160.252C125.707 159.673 150.474 173.937 150.861 193.264L187.273 193.264C192.713 192.049 202.419 191.701 207.822 193.264L207.822 193.264C207.749 199.71 207.81 206.249 207.822 212.702L150.861 212.702Z"/><path fill="#F88531" transform="scale(2 2)" d="M187.273 193.264C192.713 192.049 202.419 191.701 207.822 193.264L207.822 193.264C207.749 199.71 207.81 206.249 207.822 212.702L150.861 212.702C146.622 212.471 140.177 212.689 135.718 212.691L104.708 212.702C104.389 207.491 104.698 198.743 104.708 193.264L150.861 193.264L187.273 193.264Z"/><path fill="#283618" transform="scale(2 2)" d="M361.911 193.264C371.081 154.946 420.913 148.896 440.968 181.789C453.722 202.706 446.719 230.613 425.271 242.634C400.064 256.761 366.771 242.102 361.911 213.223C361.906 213.222 326.434 213.05 324.507 213.223C324.204 207.317 324.448 199.291 324.507 193.264C336.537 193.263 349.995 193.587 361.911 193.264Z"/><path fill="#F88531" transform="scale(2 2)" d="M361.911 193.264L407.514 193.264L407.514 213.223L375.827 213.238C373.118 213.24 363.91 213.462 361.911 213.223C361.906 213.222 326.434 213.05 324.507 213.223C324.204 207.317 324.448 199.291 324.507 193.264C336.537 193.263 349.995 193.587 361.911 193.264Z"/><path fill="#283618" transform="scale(2 2)" d="M186.766 158.533C159.708 151.855 144.253 123.147 156.748 97.4184C182.297 44.8125 261.6 83.7295 236.004 135.873C229.726 148.56 220.75 154.109 207.822 158.533L207.822 159.672L206.451 159.672C205.144 159.368 191.041 159.731 188.309 159.672L187.273 159.242C187.15 158.994 186.942 158.762 186.766 158.533Z"/><path fill="#F88531" transform="scale(2 2)" d="M186.766 121.152L207.822 121.152L207.822 158.533L207.822 159.672L206.451 159.672C205.144 159.368 191.041 159.731 188.309 159.672L187.273 159.242C187.15 158.994 186.942 158.762 186.766 158.533C186.991 157.896 186.765 124.652 186.766 121.152Z"/><path fill="#606C38" transform="scale(2 2)" d="M337.502 300.764L337.723 300.393C339.606 297.166 340.376 293.452 342.112 290.104C361.279 253.156 414.39 257.754 424.538 296.995C437.484 347.055 367.212 374.276 342.751 328.732C341.541 326.478 340.045 322.848 338.616 320.984L337.502 320.367L337.622 320.272C337.296 315.363 337.433 307.076 337.502 302.003L337.502 300.764Z"/><path fill="#F88531" transform="scale(2 2)" d="M337.502 300.764C342.61 300.981 348.692 300.772 353.889 300.767L385.679 300.764L385.679 320.367C369.841 320.359 354.361 320.81 338.616 320.984L337.502 320.367L337.622 320.272C337.296 315.363 337.433 307.076 337.502 302.003L337.502 300.764Z"/><path fill="#E8CF91" transform="scale(2 2)" d="M304.371 158.533C301.643 157.391 298.807 156.434 296.106 155.233C246.858 133.34 278.315 54.1733 332.591 76.2668C370.336 91.6308 369.239 145.473 324.507 158.533L324.507 158.533L324.507 159.242C321.993 159.02 308.982 159.108 305.947 159.242L304.371 158.533L304.371 158.533Z"/><path fill="#F88531" transform="scale(2 2)" d="M304.371 121.152C311.029 121.139 317.862 121.052 324.507 121.152C324.506 133.161 324.182 146.658 324.507 158.533L324.507 158.533L324.507 159.242C321.993 159.02 308.982 159.108 305.947 159.242L304.371 158.533L304.371 158.533C303.997 154.314 304.359 150.306 304.369 146.032L304.371 121.152Z"/><path fill="#283618" transform="scale(2 2)" d="M207.822 193.264L223.576 193.253C249.901 193.262 264.372 203.553 264.353 231.044L264.337 244.99C264.156 258.703 264.364 272.64 264.346 286.371L264.282 297.647C264.273 298.76 264.172 302.118 264.337 302.997C288.739 302.026 313.532 303.765 337.502 302.003C337.433 307.076 337.296 315.363 337.622 320.272L337.502 320.367C333.972 320.631 330.922 320.418 327.399 320.384L264.337 320.367L264.337 383.835C263.161 383.987 248.217 383.98 247.45 383.835L247.45 265.267L247.45 246.753C247.082 238.597 250.646 214.152 238.286 212.836C231.2 212.082 215.566 212.287 207.822 212.702C207.81 206.249 207.749 199.71 207.822 193.264Z"/><path fill="#BC6C25" transform="scale(2 2)" d="M264.337 383.835L295.259 383.835L295.259 438.292L215.498 438.292L215.498 383.835C225.468 383.837 237.738 383.489 247.45 383.835C248.217 383.98 263.161 383.987 264.337 383.835Z"/><path fill="#DDA15E" transform="scale(2 2)" d="M324.507 159.242L324.507 158.533C324.357 169.97 324.513 181.787 324.507 193.264C324.448 199.291 324.204 207.317 324.507 213.223L324.529 225.705C324.555 228.914 324.746 232.811 324.25 235.923C321.011 256.238 303.956 265.289 285.068 265.286L264.337 265.267L264.345 289.868C264.352 293.418 264.58 299.689 264.337 302.997C264.172 302.118 264.273 298.76 264.282 297.647L264.346 286.371C264.364 272.64 264.156 258.703 264.337 244.99C264.413 245.686 264.389 246.319 264.792 246.858C272.41 246.615 280.012 246.741 287.815 246.821C303.717 246.983 304.393 234.523 304.385 223.076L304.367 206.94C304.362 191.186 304.735 174.116 304.371 158.533L305.947 159.242C308.982 159.108 321.993 159.02 324.507 159.242Z"/><path fill="#BC6C25" transform="scale(2 2)" d="M305.947 159.242C308.982 159.108 321.993 159.02 324.507 159.242C324.14 163.854 309.275 159.992 305.947 159.242Z"/><path fill="#DDA15E" transform="scale(2 2)" d="M187.273 159.242L188.309 159.672C191.041 159.731 205.144 159.368 206.451 159.672L207.822 159.672C207.443 166.092 207.035 187.109 207.822 193.264C202.419 191.701 192.713 192.049 187.273 193.264C187.431 182.064 187.279 170.476 187.273 159.242Z"/><path fill="#872C05" transform="scale(2 2)" d="M188.309 159.672C191.041 159.731 205.144 159.368 206.451 159.672C203.35 160.809 191.748 160.697 188.309 159.672Z"/></svg>